# xmcd
#
# Track frame offsets: 
#        151
#        12788
#        26489
#        39603
#        52985
#        66629
#        81555
#        93995
#        106714
#        119513
#        133282
#        147053
#        160855
#        173772
#        186878
#        200348
#        214272
#        226934
#        240872
#        255126
#        268571
#        281129
#        294757
#
# Disc length: 4108 seconds
#
# Revision: 0
# Processed by: cddbd v1.5.2PL0 Copyright (c) Steve Scherf et al.
# Submitted via: ExactAudioCopy v0.99pb5
#
DISCID=40100a17
DTITLE=Tommy McClennan - Robert Johnson And The Last Of The Mississipi
DTITLE=Blues Singer - Disk 5
DYEAR=1900
DGENRE=Blues
TTITLE0=Katy Mae Blues
TTITLE1=Love With A Feeling
TTITLE2=Drop Down Mama
TTITLE3=Black Minnie
TTITLE4=Elsie Blues
TTITLE5=Des'e My Blues
TTITLE6=Cross Cut Saw Blues #1
TTITLE7=Cross Cut Saw Blues #2
TTITLE8=Classy Mae Blues
TTITLE9=You Can't Read My Mind
TTITLE10=Travelin' Highway Man
TTITLE11=Deep Blue Sea Blues
TTITLE12=I'm A Guitar King
TTITLE13=It's A Crying Pity
TTITLE14=Mozell Blues
TTITLE15=Blues Trip Me This Morning
TTITLE16=Mr So And So Blues
TTITLE17=Roll Me, Baby
TTITLE18=I Love My Baby
TTITLE19=Shake It Up And Go
TTITLE20=Blue As I Can Be
TTITLE21=Bluebird Blues #1
TTITLE22=Bluebird Blues #2
EXTD=
EXTT0=
EXTT1=
EXTT2=
EXTT3=
EXTT4=
EXTT5=
EXTT6=
EXTT7=
EXTT8=
EXTT9=
EXTT10=
EXTT11=
EXTT12=
EXTT13=
EXTT14=
EXTT15=
EXTT16=
EXTT17=
EXTT18=
EXTT19=
EXTT20=
EXTT21=
EXTT22=
PLAYORDER=
